<?xml version="1.0" encoding="UTF-8"?>
<!DOCTYPE svg PUBLIC "-//W3C//DTD SVG 1.1//EN" "http://www.w3.org/Graphics/SVG/1.1/DTD/svg11.dtd">
<svg xmlns="http://www.w3.org/2000/svg" version="1.1" width="1046px" height="196px" style="shape-rendering:geometricPrecision; text-rendering:geometricPrecision; image-rendering:optimizeQuality; fill-rule:evenodd; clip-rule:evenodd" xmlns:xlink="http://www.w3.org/1999/xlink">
<g><path style="opacity:0.996" fill="#858585" d="M 27.5,121.5 C 27.6716,122.492 27.3382,123.158 26.5,123.5C 17.384,81.2574 30.384,47.7574 65.5,23C 96.605,5.37737 127.938,5.04404 159.5,22C 164.86,25.3487 169.86,29.182 174.5,33.5C 169.083,42.6686 163.417,51.6686 157.5,60.5C 153.942,54.4 150.109,48.4 146,42.5C 134.347,31.457 120.513,27.2904 104.5,30C 78.2519,35.8721 57.7519,50.0388 43,72.5C 32.9083,87.2751 27.7416,103.608 27.5,121.5 Z"/></g>
<g><path style="opacity:1" fill="#e67f9b" d="M 124.5,50.5 C 124.427,52.0269 125.094,53.0269 126.5,53.5C 129.144,56.7734 131.311,60.4401 133,64.5C 135.873,73.1571 138.039,81.9904 139.5,91C 130.549,107.64 118.883,122.307 104.5,135C 95.49,143.508 84.8234,147.508 72.5,147C 63.5864,145.085 58.4197,139.585 57,130.5C 56.9437,101.449 66.777,76.2828 86.5,55C 90.6098,50.8906 95.2765,47.5573 100.5,45C 109.838,41.2992 117.838,43.1326 124.5,50.5 Z"/></g>
<g><path style="opacity:0.999" fill="#303030" d="M 770.5,51.5 C 785.086,49.9821 798.586,52.9821 811,60.5C 809.472,66.3982 807.138,72.0649 804,77.5C 792.602,68.9859 780.436,67.4859 767.5,73C 764.651,78.1181 765.985,81.7848 771.5,84C 779.907,86.0812 788.241,88.4145 796.5,91C 812.337,97.1767 817.504,108.343 812,124.5C 807.637,132.109 801.137,136.942 792.5,139C 774.698,143.078 757.864,140.578 742,131.5C 743.707,126.216 745.54,120.883 747.5,115.5C 752.503,117.224 757.503,119.058 762.5,121C 771.65,123.323 780.65,122.99 789.5,120C 792.22,116.125 791.554,112.791 787.5,110C 780.254,107.689 772.921,105.689 765.5,104C 744.565,98.1781 738.399,85.3448 747,65.5C 753.283,58.1133 761.116,53.4466 770.5,51.5 Z"/></g>
<g><path style="opacity:0.475" fill="#f6ccd7" d="M 124.5,50.5 C 125.906,50.9731 126.573,51.9731 126.5,53.5C 125.094,53.0269 124.427,52.0269 124.5,50.5 Z"/></g>
<g><path style="opacity:0.777" fill="#636363" d="M 302.5,53.5 C 305.482,52.8351 308.648,52.5018 312,52.5C 315.576,52.5152 318.742,53.1818 321.5,54.5C 315.256,53.5422 308.923,53.2088 302.5,53.5 Z"/></g>
<g><path style="opacity:0.795" fill="#8e8e8e" d="M 389.5,120.5 C 389.5,120.833 389.5,121.167 389.5,121.5C 388.503,99.0061 388.169,76.3395 388.5,53.5C 381.167,53.5 373.833,53.5 366.5,53.5C 366.5,82.1667 366.5,110.833 366.5,139.5C 365.502,110.671 365.169,81.6715 365.5,52.5C 373.5,52.5 381.5,52.5 389.5,52.5C 389.5,75.1667 389.5,97.8333 389.5,120.5 Z"/></g>
<g><path style="opacity:0.777" fill="#8c8c8c" d="M 542.5,53.5 C 535.167,53.5 527.833,53.5 520.5,53.5C 520.5,82.1667 520.5,110.833 520.5,139.5C 519.502,110.671 519.169,81.6715 519.5,52.5C 527.352,52.1746 535.018,52.508 542.5,53.5 Z"/></g>
<g><path style="opacity:0.786" fill="#7f7f7f" d="M 599.5,139.5 C 599.5,110.833 599.5,82.1667 599.5,53.5C 592.5,53.5 585.5,53.5 578.5,53.5C 578.828,64.6794 578.495,75.6794 577.5,86.5C 577.5,75.1667 577.5,63.8333 577.5,52.5C 585.167,52.5 592.833,52.5 600.5,52.5C 600.831,81.6715 600.498,110.671 599.5,139.5 Z"/></g>
<g><path style="opacity:0.784" fill="#8c8c8c" d="M 846.5,52.5 C 846.5,52.8333 846.5,53.1667 846.5,53.5C 839.5,53.5 832.5,53.5 825.5,53.5C 825.5,82.1667 825.5,110.833 825.5,139.5C 824.502,110.671 824.169,81.6715 824.5,52.5C 831.833,52.5 839.167,52.5 846.5,52.5 Z"/></g>
<g><path style="opacity:0.507" fill="#939393" d="M 846.5,52.5 C 847.167,63.1667 847.833,73.8333 848.5,84.5C 848.217,85.2891 847.717,85.9558 847,86.5C 846.5,75.505 846.333,64.505 846.5,53.5C 846.5,53.1667 846.5,52.8333 846.5,52.5 Z"/></g>
<g><path style="opacity:0.999" fill="#2e2e2e" d="M 302.5,53.5 C 308.923,53.2088 315.256,53.5422 321.5,54.5C 334.964,82.5953 348.297,110.762 361.5,139C 353.833,139.667 346.167,139.667 338.5,139C 335.833,133.333 333.167,127.667 330.5,122C 317.82,121.167 305.154,121.334 292.5,122.5C 290.167,127.833 287.833,133.167 285.5,138.5C 277.521,139.665 269.521,139.832 261.5,139C 274.895,110.285 288.562,81.7853 302.5,53.5 Z M 311.5,77.5 C 315.596,86.199 319.596,95.0323 323.5,104C 315.812,104.831 308.145,104.665 300.5,103.5C 304.563,94.9725 308.229,86.3058 311.5,77.5 Z"/></g>
<g><path style="opacity:1" fill="#292a29" d="M 389.5,121.5 C 401.5,121.5 413.5,121.5 425.5,121.5C 425.5,127.5 425.5,133.5 425.5,139.5C 405.833,139.5 386.167,139.5 366.5,139.5C 366.5,110.833 366.5,82.1667 366.5,53.5C 373.833,53.5 381.167,53.5 388.5,53.5C 388.169,76.3395 388.503,99.0061 389.5,121.5 Z"/></g>
<g><path style="opacity:0.785" fill="#606060" d="M 486.5,53.5 C 470.167,53.5 453.833,53.5 437.5,53.5C 437.5,82.1667 437.5,110.833 437.5,139.5C 436.502,110.671 436.169,81.6715 436.5,52.5C 453.342,52.1702 470.008,52.5035 486.5,53.5 Z"/></g>
<g><path style="opacity:1" fill="#2d2d2d" d="M 486.5,53.5 C 501.698,56.0345 509.365,65.0345 509.5,80.5C 509.41,93.8566 503.077,102.69 490.5,107C 480.223,108.37 469.889,108.87 459.5,108.5C 459.5,118.833 459.5,129.167 459.5,139.5C 452.167,139.5 444.833,139.5 437.5,139.5C 437.5,110.833 437.5,82.1667 437.5,53.5C 453.833,53.5 470.167,53.5 486.5,53.5 Z M 459.5,70.5 C 466.841,70.3337 474.174,70.5003 481.5,71C 487.109,74.2769 488.942,79.1103 487,85.5C 485.773,87.7261 483.939,89.2261 481.5,90C 474.174,90.4997 466.841,90.6663 459.5,90.5C 459.5,83.8333 459.5,77.1667 459.5,70.5 Z"/></g>
<g><path style="opacity:0.999" fill="#2a2a2a" d="M 542.5,53.5 C 542.5,64.5 542.5,75.5 542.5,86.5C 554.167,86.5 565.833,86.5 577.5,86.5C 578.495,75.6794 578.828,64.6794 578.5,53.5C 585.5,53.5 592.5,53.5 599.5,53.5C 599.5,82.1667 599.5,110.833 599.5,139.5C 592.167,139.5 584.833,139.5 577.5,139.5C 577.5,127.833 577.5,116.167 577.5,104.5C 565.833,104.5 554.167,104.5 542.5,104.5C 542.5,116.167 542.5,127.833 542.5,139.5C 535.167,139.5 527.833,139.5 520.5,139.5C 520.5,110.833 520.5,82.1667 520.5,53.5C 527.833,53.5 535.167,53.5 542.5,53.5 Z"/></g>
<g><path style="opacity:0.999" fill="#2e2e2e" d="M 645.5,52.5 C 651.868,52.1703 658.202,52.5037 664.5,53.5C 677.56,81.9541 690.894,110.287 704.5,138.5C 696.833,139.833 689.167,139.833 681.5,138.5C 679.167,133.167 676.833,127.833 674.5,122.5C 661.846,121.334 649.18,121.167 636.5,122C 633.833,127.667 631.167,133.333 628.5,139C 620.812,139.831 613.145,139.665 605.5,138.5C 618.847,109.807 632.181,81.1405 645.5,52.5 Z M 654.5,77.5 C 658.671,85.9798 662.671,94.6464 666.5,103.5C 658.855,104.665 651.188,104.831 643.5,104C 647.591,95.3215 651.257,86.4881 654.5,77.5 Z"/></g>
<g><path style="opacity:0.999" fill="#2c2c2c" d="M 846.5,53.5 C 846.333,64.505 846.5,75.505 847,86.5C 847.717,85.9558 848.217,85.2891 848.5,84.5C 853.198,79.575 859.032,77.2417 866,77.5C 878.18,77.3405 885.18,83.3405 887,95.5C 887.5,110.163 887.667,124.83 887.5,139.5C 880.167,139.5 872.833,139.5 865.5,139.5C 865.667,127.495 865.5,115.495 865,103.5C 864.268,95.4662 860.101,92.9662 852.5,96C 850.19,97.6374 848.69,99.804 848,102.5C 847.5,114.829 847.333,127.162 847.5,139.5C 840.167,139.5 832.833,139.5 825.5,139.5C 825.5,110.833 825.5,82.1667 825.5,53.5C 832.5,53.5 839.5,53.5 846.5,53.5 Z"/></g>
<g><path style="opacity:0.997" fill="#848484" d="M 192.5,57.5 C 207.47,86.9421 206.97,116.275 191,145.5C 186.228,142.973 182.562,139.307 180,134.5C 175.735,122.538 171.568,110.538 167.5,98.5C 176.096,84.9722 184.429,71.3055 192.5,57.5 Z"/></g>
<g><path style="opacity:0.999" fill="#303030" d="M 921.5,77.5 C 954.035,74.9867 967.535,89.6534 962,121.5C 955.669,134.588 945.169,140.922 930.5,140.5C 909.368,140.533 898.034,130.033 896.5,109C 896.943,92.0729 905.276,81.5729 921.5,77.5 Z M 929.5,93.5 C 938.608,94.5013 942.608,99.668 941.5,109C 941.751,120.084 936.418,124.75 925.5,123C 920.527,119.711 918.527,115.044 919.5,109C 918.511,100.769 921.844,95.602 929.5,93.5 Z"/></g>
<g><path style="opacity:0.999" fill="#2d2d2d" d="M 995.5,161.5 C 988.5,161.5 981.5,161.5 974.5,161.5C 974.5,134.167 974.5,106.833 974.5,79.5C 981.167,79.5 987.833,79.5 994.5,79.5C 994.192,81.924 994.526,84.2573 995.5,86.5C 996.107,86.3764 996.44,86.0431 996.5,85.5C 996.511,83.9826 997.177,82.8159 998.5,82C 1015.46,73.1005 1028.63,76.9338 1038,93.5C 1042.12,106.289 1041.12,118.622 1035,130.5C 1025.21,141.243 1013.71,143.41 1000.5,137C 998.43,136.052 996.93,134.552 996,132.5C 995.5,142.161 995.334,151.828 995.5,161.5 Z M 1002.5,94.5 C 1008.9,93.0526 1013.73,95.0526 1017,100.5C 1019.25,106.992 1018.92,113.325 1016,119.5C 1012.26,123.259 1007.76,124.426 1002.5,123C 1000,121.833 998.167,120 997,117.5C 994.831,111.026 995.164,104.693 998,98.5C 999.397,96.9297 1000.9,95.5964 1002.5,94.5 Z"/></g>
<g><path style="opacity:0.51" fill="#838383" d="M 996.5,85.5 C 996.44,86.0431 996.107,86.3764 995.5,86.5C 994.526,84.2573 994.192,81.924 994.5,79.5C 987.833,79.5 981.167,79.5 974.5,79.5C 974.5,106.833 974.5,134.167 974.5,161.5C 981.5,161.5 988.5,161.5 995.5,161.5C 988.352,162.492 981.019,162.825 973.5,162.5C 973.5,134.5 973.5,106.5 973.5,78.5C 980.833,78.5 988.167,78.5 995.5,78.5C 995.198,81.0593 995.532,83.3926 996.5,85.5 Z"/></g>
<g><path style="opacity:0.203" fill="#d8d8d8" d="M 27.5,121.5 C 28.4682,123.607 28.8016,125.941 28.5,128.5C 27.4625,127.07 26.7959,125.403 26.5,123.5C 27.3382,123.158 27.6716,122.492 27.5,121.5 Z"/></g>
<g><path style="opacity:0.507" fill="#a9a9a9" d="M 389.5,121.5 C 389.5,121.167 389.5,120.833 389.5,120.5C 401.833,120.5 414.167,120.5 426.5,120.5C 426.823,127.022 426.49,133.355 425.5,139.5C 425.5,133.5 425.5,127.5 425.5,121.5C 413.5,121.5 401.5,121.5 389.5,121.5 Z"/></g>
<g><path style="opacity:0.243" fill="#f7d7e0" d="M 151.5,128.5 C 150.5,127.167 149.5,127.167 148.5,128.5C 149.5,125.833 150.5,125.833 151.5,128.5 Z"/></g>
<g><path style="opacity:0.999" fill="#e7819c" d="M 151.5,128.5 C 152.592,134.016 154.259,139.35 156.5,144.5C 156.427,146.027 157.094,147.027 158.5,147.5C 164.142,153.995 171.142,158.495 179.5,161C 150.509,189.134 116.843,196.467 78.5,183C 72.6076,180.563 67.2742,177.396 62.5,173.5C 62.0269,172.094 61.0269,171.427 59.5,171.5C 52.4789,166.479 46.4789,160.479 41.5,153.5C 41.8417,152.662 42.5084,152.328 43.5,152.5C 58.5728,162.013 74.9061,164.846 92.5,161C 109.884,157.474 125.217,149.974 138.5,138.5C 142.833,136.167 146.167,132.833 148.5,128.5C 149.5,127.167 150.5,127.167 151.5,128.5 Z"/></g>
<g><path style="opacity:0.18" fill="#dedfde" d="M 28.5,128.5 C 29.8333,129.167 29.8333,129.167 28.5,128.5 Z"/></g>
<g><path style="opacity:0.749" fill="#f4c2cf" d="M 148.5,128.5 C 146.167,132.833 142.833,136.167 138.5,138.5C 141.5,134.833 144.833,131.5 148.5,128.5 Z"/></g>
<g><path style="opacity:0.216" fill="#f8dee4" d="M 35.5,144.5 C 36.8333,145.167 36.8333,145.167 35.5,144.5 Z"/></g>
<g><path style="opacity:0.478" fill="#f5c8d4" d="M 156.5,144.5 C 157.906,144.973 158.573,145.973 158.5,147.5C 157.094,147.027 156.427,146.027 156.5,144.5 Z"/></g>
<g><path style="opacity:0.793" fill="#f7cfd9" d="M 43.5,152.5 C 42.5084,152.328 41.8417,152.662 41.5,153.5C 38.7434,151.629 37.41,149.295 37.5,146.5C 39.8545,148.188 41.8545,150.188 43.5,152.5 Z"/></g>
<g><path style="opacity:0.502" fill="#f6cbd7" d="M 59.5,171.5 C 61.0269,171.427 62.0269,172.094 62.5,173.5C 60.9731,173.573 59.9731,172.906 59.5,171.5 Z"/></g>
</svg>
